:version 1.10
:name ASF
:units
  mass 1
  length 1
  angle deg
:documentation
  ASF file generated by Kaydara
:root
  axis xyz
  order  tx ty tz rx ry rz
  position 0 0 0
  orientation 0 0 0
:bonedata
  begin
    id 1
    name RightUpLegDummy
    direction -0.718183 -0.695806 0.00816078
    length 4.904
    axis 0 0 0 xyz
  end
  begin
    id 2
    name RightUpLeg
    direction 3.53373e-006 -0.995788 0.0916898
    length 17.4976
    axis -3.49089 -0.000906625 0.000286804 xyz
    dof rx ry rz
  end
  begin
    id 3
    name RightLeg
    direction 0.00371092 -0.995096 -0.0988419
    length 16.5821
    axis 3.68512 0.0193738 -0.131023 xyz
    dof rx ry rz
  end
  begin
    id 4
    name RightFoot
    direction 0.00079151 -0.46099 0.887405
    length 3.77069
    axis 4.81691e-005 -0.120479 -0.188788 xyz
    dof rx ry rz
  end
  begin
    id 5
    name RightToes
    direction 0 0 0
    length 0
    axis 0 0 0 xyz
    dof rx ry rz
  end
  begin
    id 6
    name SpineDummy
    direction 8.3039e-015 1 4.57515e-016
    length 4.6813
    axis 0 0 0 xyz
  end
  begin
    id 7
    name Spine
    direction -3.15643e-008 0.999988 0.00495137
    length 10.1015
    axis -0.001389 0.000121418 2.40972e-006 xyz
    dof rx ry rz
  end
  begin
    id 8
    name Spine1
    direction 0 0 0
    length 0
    axis -0.001389 0.000121451 1.30017e-006 xyz
    dof rx ry rz
  end
  begin
    id 9
    name HEadDummy
    direction -1.99912e-008 0.999999 0.00127422
    length 3.43865
    axis -0.001389 0.000121451 1.30017e-006 xyz
  end
  begin
    id 10
    name HEad
    direction 0 0 0
    length 0
    axis 0 0 0 xyz
    dof rx ry rz
  end
  begin
    id 11
    name LeftShoulder1Dummy
    direction 0.998891 -0.0402509 -0.0244456
    length 3.5433
    axis -0.001389 0.000121451 1.30017e-006 xyz
  end
  begin
    id 12
    name LeftShoulder1
    direction 0.99951 -0.000327763 0.0313091
    length 4.05031
    axis -0.001389 0.000121451 1.30017e-006 xyz
    dof rx ry rz
  end
  begin
    id 13
    name LeftArm
    direction 0.998561 -0.00100056 -0.0536182
    length 10.3537
    axis -23.1894 0.134784 0.967509 xyz
    dof rx ry rz
  end
  begin
    id 14
    name LeftForeArm
    direction 0.998903 0.00866432 0.046012
    length 8.70632
    axis -9.91835 -0.06569 -0.177794 xyz
    dof rx ry rz
  end
  begin
    id 15
    name LeftHand
    direction 0 0 0
    length 0
    axis 0 0 0 xyz
    dof rx ry rz
  end
  begin
    id 16
    name RightShoulderDummy
    direction -0.998891 -0.0402509 -0.0244414
    length 3.5433
    axis -0.001389 0.000121451 1.30017e-006 xyz
  end
  begin
    id 17
    name RightShoulder
    direction -0.99951 -0.000327807 0.0313133
    length 4.05031
    axis 0.215806 0.000203643 -0.0068026 xyz
    dof rx ry rz
  end
  begin
    id 18
    name RightArm
    direction -0.998573 -0.000999564 -0.053403
    length 10.3947
    axis -23.2009 -0.134239 -0.964101 xyz
    dof rx ry rz
  end
  begin
    id 19
    name RightForeArm
    direction -0.998898 0.00868028 0.0461306
    length 8.68355
    axis -9.92322 0.0658061 0.178868 xyz
    dof rx ry rz
  end
  begin
    id 20
    name RightHand
    direction 0 0 0
    length 0
    axis 0 0 0 xyz
    dof rx ry rz
  end
  begin
    id 21
    name LeftUpLegDummy
    direction 0.718183 -0.695806 0.00816078
    length 4.904
    axis 0 0 0 xyz
  end
  begin
    id 22
    name LeftUpLeg
    direction -6.81752e-006 -0.995793 0.0916337
    length 17.4976
    axis -3.48766 0.00143442 -0.000524262 xyz
    dof rx ry rz
  end
  begin
    id 23
    name LeftLeg
    direction -0.00601358 -0.995091 -0.0987824
    length 16.5821
    axis 3.68178 -0.00654042 -0.000285133 xyz
    dof rx ry rz
  end
  begin
    id 24
    name LeftFoot
    direction -0.00417578 -0.460984 0.887399
    length 3.77069
    axis 1.87233e-006 4.66016e-005 -8.6538e-006 xyz
    dof rx ry rz
  end
  begin
    id 25
    name LeftToes
    direction 0 0 0
    length 0
    axis 0 0 0 xyz
    dof rx ry rz
  end
:hierarchy
  begin
    root RightUpLegDummy SpineDummy LeftUpLegDummy
    RightUpLegDummy RightUpLeg
    RightUpLeg RightLeg
    RightLeg RightFoot
    RightFoot RightToes
    SpineDummy Spine
    Spine Spine1
    Spine1 HEadDummy LeftShoulder1Dummy RightShoulderDummy
    HEadDummy HEad
    LeftShoulder1Dummy LeftShoulder1
    LeftShoulder1 LeftArm
    LeftArm LeftForeArm
    LeftForeArm LeftHand
    RightShoulderDummy RightShoulder
    RightShoulder RightArm
    RightArm RightForeArm
    RightForeArm RightHand
    LeftUpLegDummy LeftUpLeg
    LeftUpLeg LeftLeg
    LeftLeg LeftFoot
    LeftFoot LeftToes
  end

:SAMPLES-PER-SECOND 30
:FULLY-SPECIFIED
:DEGREES
270
root  13.5309 40.7046 7.43178 8.32764 75.2694 8.16504
RightUpLeg  -7.32053 -8.52515 -8.58765
RightLeg  6.98021 5.41264 1.91487
RightFoot  2.085 -0.20114 1.7105
RightToes  0.000481921 0.542163 -0.142578
Spine  9.94207 -0.909806 0.254399
Spine1  -0.0418029 -1.01116 0.270592
HEad  17.5641 17.7527 -2.32896
LeftShoulder1  6.68937 -11.3661 -38.8017
LeftArm  -21.9675 30.9399 -37.9422
LeftForeArm  175.659 -48.4232 -168.97
LeftHand  -0.25398 0.0180481 5.50724
RightShoulder  3.26242 5.61815 29.7898
RightArm  9.14562 -9.01419 43.632
RightForeArm  166.658 57.8017 163.888
RightHand  -0.556148 0.751471 -10.6089
LeftUpLeg  1.19074 7.01672 3.44515
LeftLeg  1.99612 31.2191 -4.9361
LeftFoot  -0.881217 0.203487 -2.15585
LeftToes  1.06247e-005 4.65869e-005 -8.65511e-006
271
root  13.5432 40.7063 7.49297 9.87585 77.593 9.96552
RightUpLeg  -6.6189 -9.04266 -8.99025
RightLeg  7.33685 3.72382 1.98538
RightFoot  1.58018 -0.214368 1.94725
RightToes  0.000481921 0.542163 -0.142578
Spine  9.02499 -1.38155 0.333392
Spine1  0.595797 -1.50791 0.332073
HEad  18.239 16.1786 -2.31809
LeftShoulder1  6.87161 -11.9679 -38.2501
LeftArm  -19.2 29.0962 -37.3489
LeftForeArm  178.281 -48.6934 -169.047
LeftHand  -0.25398 0.0180481 5.50724
RightShoulder  3.25029 5.65388 29.5158
RightArm  8.91565 -7.37427 43.0943
RightForeArm  165.672 57.9652 163.706
RightHand  -0.5781 0.920406 -10.7503
LeftUpLeg  1.07356 6.81863 3.41377
LeftLeg  2.22369 29.1252 -4.69742
LeftFoot  -0.752123 0.198478 -2.03974
LeftToes  1.06247e-005 4.65869e-005 -8.65511e-006
272
root  13.5203 40.7117 7.57917 12.8742 80.5001 13.3542
RightUpLeg  -5.63665 -9.72698 -9.46592
RightLeg  7.66383 1.6289 2.07036
RightFoot  1.04665 -0.220422 2.09731
RightToes  0.000481921 0.542163 -0.142578
Spine  8.93965 -2.1837 -0.426979
Spine1  0.469542 -2.57559 1.37043
HEad  18.8645 14.8505 -2.63981
LeftShoulder1  6.89423 -12.0558 -38.1509
LeftArm  -15.1949 24.5169 -34.3853
LeftForeArm  -178.523 -48.0689 -169.495
LeftHand  -0.25398 0.0180481 5.50724
RightShoulder  3.29623 5.8865 29.1173
RightArm  8.64802 -6.06496 42.8433
RightForeArm  166.375 58.0909 163.692
RightHand  -0.572164 1.02414 -10.4785
LeftUpLeg  1.06901 6.50251 3.35228
LeftLeg  2.20209 26.5657 -4.47108
LeftFoot  -0.443487 0.196508 -1.97695
LeftToes  1.06247e-005 4.65869e-005 -8.65511e-006
273
root  13.5106 40.7099 7.68025 16.7566 82.55 17.5675
RightUpLeg  -4.99725 -10.1927 -9.69834
RightLeg  8.16898 0.114381 1.97792
RightFoot  0.525203 -0.204798 2.00339
RightToes  0.000481921 0.542163 -0.142578
Spine  9.1059 -2.61457 -1.46377
Spine1  -0.0629427 -3.24964 2.33786
HEad  19.5416 13.6662 -2.52733
LeftShoulder1  6.72883 -11.8947 -37.5617
LeftArm  -13.5998 20.4288 -33.1
LeftForeArm  -177.931 -48.0909 -169.525
LeftHand  -0.25398 0.0180481 5.50724
RightShoulder  3.41589 6.19613 29.2331
RightArm  8.19649 -5.38977 42.3395
RightForeArm  166.908 57.9679 163.811
RightHand  -0.551104 0.791557 -10.4548
LeftUpLeg  1.21069 6.28497 3.33678
LeftLeg  2.04106 24.6923 -4.3531
LeftFoot  -0.198897 0.203419 -2.05506
LeftToes  1.06247e-005 4.65869e-005 -8.65511e-006
274
root  13.5233 40.7065 7.77084 20.5334 83.7289 21.3784
RightUpLeg  -4.85141 -10.4323 -9.70637
RightLeg  8.62183 -0.847314 1.81905
RightFoot  0.154324 -0.178737 1.78503
RightToes  0.000481921 0.542163 -0.142578
Spine  8.90772 -2.69524 -2.44447
Spine1  -0.411219 -3.50607 3.07575
HEad  19.8528 12.9611 -2.06504
LeftShoulder1  6.48526 -11.7316 -36.4689
LeftArm  -14.3852 18.4304 -33.8041
LeftForeArm  -178.608 -48.8153 -169.214
LeftHand  -0.25398 0.0180481 5.50724
RightShoulder  3.53296 6.40837 29.6712
RightArm  7.72332 -5.20311 41.92
RightForeArm  166.732 57.8997 163.836
RightHand  -0.544134 0.529937 -10.7454
LeftUpLeg  1.1388 6.16026 3.35157
LeftLeg  1.96118 23.5769 -4.26831
LeftFoot  -0.0307377 0.208753 -2.10834
LeftToes  1.06247e-005 4.65869e-005 -8.65511e-006
